<defs>
<font horiz-adv-x="405" ><font-face
    font-family="josefinsans-semi-bold"
    units-per-em="1000"
    panose-1="0 0 0 0 0 0 0 0 0 0"
    ascent="750"
    descent="-250"
    alphabetic="0" />
<missing-glyph horiz-adv-x="300" />
<glyph unicode=" " glyph-name="space" horiz-adv-x="300" />
<glyph unicode="!" glyph-name="exclam" horiz-adv-x="201" d="M100 11Q84 11 71 23T58 54Q58 73 71 84T100 96Q116 96 129 85T142 54Q142 35 129 23T100 11V11ZM68 750H131V166H68V750Z" />
<glyph unicode="&quot;" glyph-name="quotedbl" horiz-adv-x="322" d="M196 472V720H259Q258 657 257 596T255 472H196ZM63 472V720H126Q125 657 124 596T122 472H63Z" />
<glyph unicode="#" glyph-name="numbersign" horiz-adv-x="571" d="M211 382Q207 351 204 321T196 260H317Q321 291 324 321T332 382H211ZM286 0Q292 51 298 99T310 199H189Q183 148 177 100T165 0H102Q108 51 114 99T126 199H26Q28 214 29 229T33 260H133Q137
291 140 321T148 382H49Q51 397 52 412T55 443H155Q161 494 167 543T179 643H242Q236 592 230 543T218 443H339Q345 494 351 543T363 643H426Q420 592 414 543T402 443H514Q512 427 511 412T508 382H395Q391 351 388 321T380 260H492Q490 245 489 230T485 199H373Q367
148 361 100T349 0H286Z" />
<glyph unicode="$" glyph-name="dollar" horiz-adv-x="567" d="M144 519Q144 477 164 455T220 419Q225 416 230 414T242 410V641Q217 637 199 626T168 598T150 561T144 519ZM422 186Q422 216 412 237T386 274T348 300T305 320V56Q329 60 350 71T387 98T412 137T422
186ZM440 636Q431 625 423 613T405 590Q391 603 366 618T305 640V387Q335 375 367 359T425 320T467 265T484 187Q484 146 470 113T432 54T375 14T305 -6V-68H242V-5Q208 -1 179 10T126 35T84 66T56 98L96 138Q120 112 156 87T242 54V343Q237 345 232 347T221 352Q202
359 178 371T133 402T98 449T82 517Q81 547 89 578T116 635T166 679T242 702V764H305V701Q336 696 369 682T440 636Z" />
<glyph unicode="%" glyph-name="percent" horiz-adv-x="726" d="M462 111Q462 85 479 68T522 51Q548 51 565 68T582 111Q582 137 565 154T522 171Q496 171 479 154T462 111ZM522 -10Q497 -10 475 -1T436 25T409 64T399 112Q399 137 409 159T435 197T474 222T522
232Q547 232 569 223T608 197T635 159T645 112Q645 86 635 64T608 26T569 0T522 -10ZM158 389Q158 363 175 346T218 328Q244 328 261 345T278 389Q278 414 261 431T218 449Q192 449 175 432T158 389ZM218 267Q193 267 171 276T132 302T105 341T95 389Q95 414 105
436T131 474T170 500T218 510Q243 510 265 501T304 475T331 436T341 389Q341 363 331 341T304 303T265 277T218 267ZM184 0Q259 126 333 250T482 500H551Q476 374 402 250T253 0H184Z" />
<glyph unicode="&amp;" glyph-name="ampersand" horiz-adv-x="700" d="M168 188Q168 159 178 135T206 92T249 63T303 52Q345 52 376 72T424 124Q394 174 364 223T303 322Q243 320 206 284T168 188ZM503 210V187Q503 156 490 127Q508 98 525 70T561 13Q548 5 536
-3T512 -19Q498 2 486 23T460 66Q432 31 392 12T303 -8Q262 -8 226 7T163 49T121 111T105 188Q105 224 117 256T151 313T202 356T267 380Q250 409 232 438T196 496Q178 526 171 558T168 620T191 678T243 726Q271 743 300 746T358 745T410 728T454 705Q448 693 442
681T429 656Q415 664 397 672T360 685T322 689T285 676Q237 646 232 601T253 512Q298 438 342 366T432 220Q437 238 440 254T445 284V305Q450 334 461 348T488 369T521 375T558 375H602V314H554Q539 314 529 310T513 294T505 262T503 210Z" />
<glyph unicode="&apos;" glyph-name="quotesingle" horiz-adv-x="158" d="M49 472V720H114Q113 657 112 596T110 472H49Z" />
<glyph unicode="(" glyph-name="parenleft" horiz-adv-x="415" d="M125 291Q125 366 139 434T176 560T228 665T290 746Q303 740 315 735T342 723Q313 690 286 645T236 545T201 426T188 291Q188 220 201 156T236 37T285 -63T342 -141Q328 -147 316 -152T290 -164Q258
-131 229 -84T176 22T139 148T125 291Z" />
<glyph unicode=")" glyph-name="parenright" horiz-adv-x="400" d="M302 289Q302 214 288 146T251 20T198 -85T137 -166Q124 -161 111 -156T85 -144Q114 -111 141 -66T191 34T226 153T239 288Q239 359 226 423T191 542T142 642T85 720Q98 726 111 732T137 744Q168
711 198 664T251 558T288 432T302 289Z" />
<glyph unicode="*" glyph-name="asterisk" horiz-adv-x="335" d="M230 575Q249 564 268 553T307 531Q299 517 291 503T275 475Q255 486 237 498T198 521Q198 499 198 478T197 434H137V521Q118 510 99 500T61 478Q45 507 29 533Q49 544 67 554T106 576Q87 587 68
599T30 622Q38 635 45 647T59 674Q79 663 98 651T137 628V720H201Q201 697 201 674T200 628Q220 639 239 650T279 673Q287 659 294 647T309 621Q289 610 270 598T230 575Z" />
<glyph unicode="+" glyph-name="plus" horiz-adv-x="543" d="M234 51V200H86V261H234V411H297V261H446V200H297V51H234Z" />
<glyph unicode="," glyph-name="comma" horiz-adv-x="200" d="M152 86Q130 34 109 -17T66 -120H10Q29 -68 47 -17T86 86H152Z" />
<glyph unicode="-" glyph-name="hyphen" horiz-adv-x="300" d="M53 158V219H237V158H53Z" />
<glyph unicode="." glyph-name="period" horiz-adv-x="163" d="M43 42Q43 61 56 73T85 85Q101 85 114 73T127 42Q127 23 114 12T85 0Q69 0 56 11T43 42Z" />
<glyph unicode="/" glyph-name="slash" horiz-adv-x="363" d="M17 -19Q87 171 156 358T295 736H358Q288 546 219 359T80 -19H17Z" />
<glyph unicode="0" glyph-name="zero" horiz-adv-x="616" d="M37 327Q37 395 56 455T110 561T195 632T307 658Q369 658 418 631T502 558T555 452T573 323Q573 249 550 188T490 84T403 16T302 -8Q250 -8 202 17T117 86T59 191T37 327ZM100 327Q100 268 116 218T160
132T225 74T303 53Q343 53 380 73T446 129T492 215T510 324Q510 371 498 419T461 507T397 572T307 597Q255 597 216 573T152 510T113 423T100 327Z" />
<glyph unicode="1" glyph-name="one" horiz-adv-x="266" d="M34 589V650H178V0H115V589H34Z" />
<glyph unicode="2" glyph-name="two" horiz-adv-x="512" d="M204 61H482V0H53Q116 62 174 121T278 235T351 343T379 442Q379 485 366 514T333 562T290 589T245 597Q204 597 178 583T136 547T115 502T109 459Q109 394 148 352L110 314Q95 325 83 342T63 378T51
419T46 459Q46 499 59 535T97 598T159 642T245 658Q289 658 325 642T388 598T428 533T442 454Q442 402 421 352T367 253T290 157T204 61Z" />
<glyph unicode="3" glyph-name="three" horiz-adv-x="515" d="M161 336Q202 400 242 462T322 588H103V650H429Q389 589 350 529T269 408Q305 400 336 382T391 338T427 278T440 205Q440 161 423 123T377 55T309 9T226 -8Q179 -8 139 10T69 61Q80 72 92 83T115 105Q135
82 163 68T225 53Q256 53 284 65T333 98T366 146T378 205Q378 236 366 263T333 311T284 343T225 355Q191 355 161 336Z" />
<glyph unicode="4" glyph-name="four" horiz-adv-x="522" d="M340 474Q295 416 252 359T164 244H340V474ZM37 183Q129 302 220 420T403 658V244H500V183H403V0H340V183H37Z" />
<glyph unicode="5" glyph-name="five" horiz-adv-x="543" d="M143 307V650H430V589H206V407Q230 415 254 415Q297 415 336 399T404 354T451 287T468 205Q468 161 451 123T405 55T336 9T254 -8Q211 -8 174 7T107 51Q118 62 129 72T153 94Q192 53 253 53Q284 53
312 65T361 98T394 146T406 205Q406 236 394 263T361 310T312 342T253 354Q218 354 189 343T143 307Z" />
<glyph unicode="6" glyph-name="six" horiz-adv-x="520" d="M113 204Q113 173 124 146T156 98T203 65T261 53Q292 53 320 65T369 97T402 145T414 204Q414 235 402 262T369 310T320 342T261 354Q230 354 203 342T156 310T125 263T113 204ZM49 196Q49 268 79 330T158
447T265 548T380 636Q390 624 399 612T419 587Q334 530 281 480T198 390Q210 401 226 408T262 415Q306 415 345 399T413 354T459 287T476 204Q476 160 459 122T413 55T345 9T262 -8Q219 -8 181 8T114 51T68 116T49 196Z" />
<glyph unicode="7" glyph-name="seven" horiz-adv-x="469" d="M14 588V650H423Q350 486 277 325T131 0H59Q126 148 192 294T325 588H14Z" />
<glyph unicode="8" glyph-name="eight" horiz-adv-x="510" d="M163 502Q163 484 170 468T189 441T219 423T255 416Q294 416 320 440T346 502Q346 521 339 538T320 569T291 589T255 597Q236 597 219 590T190 569T170 539T163 502ZM105 205Q105 174 116 147T148
98T195 65T253 53Q284 53 312 65T361 98T394 146T406 205Q406 235 394 262T362 309T315 341T256 354Q224 354 197 342T149 310T117 263T105 205ZM41 205Q41 267 73 316T158 390Q131 409 115 438T99 504Q99 536 111 564T144 613T193 646T253 658Q285 658 313 646T362
612T395 563T408 503Q408 468 392 439T349 390Q402 365 435 316T468 205Q468 161 451 123T405 55T336 9T254 -8Q210 -8 172 9T104 55T58 122T41 205Z" />
<glyph unicode="9" glyph-name="nine" horiz-adv-x="525" d="M398 423Q398 454 387 481T355 529T307 562T249 574Q218 574 191 562T142 530T109 482T97 423Q97 392 109 365T142 317T190 285T249 273Q280 273 307 285T354 317T386 364T398 423ZM462 423Q462 353
431 292T351 177T244 77T131 -9Q121 3 111 15T92 40Q177 97 230 147T313 237Q288 212 249 212Q205 212 166 228T98 273T52 340T35 423Q35 466 52 505T98 572T166 618T249 635Q293 635 331 618T399 573T445 505T462 423Z" />
<glyph unicode=":" glyph-name="colon" horiz-adv-x="175" d="M43 292Q43 311 55 323T85 335Q101 335 114 323T127 292Q127 273 114 262T85 250Q68 250 56 261T43 292ZM43 42Q43 61 55 73T85 85Q101 85 114 73T127 42Q127 23 114 12T85 0Q68 0 56 11T43 42Z" />
<glyph unicode=";" glyph-name="semicolon" horiz-adv-x="201" d="M71 292Q71 311 84 323T114 335Q129 335 142 323T155 292Q155 273 142 262T114 250Q97 250 84 261T71 292ZM138 86Q116 34 95 -17T52 -120H-5Q15 -68 33 -17T72 86H138Z" />
<glyph unicode="&lt;" glyph-name="less" horiz-adv-x="680" d="M553 70V-14Q443 49 335 112T116 238Q226 301 334 364T553 490V406Q480 364 407 322T261 238Q334 196 407 154T553 70Z" />
<glyph unicode="=" glyph-name="equal" horiz-adv-x="708" d="M606 184V123H100V184H606ZM606 378V317H100V378H606Z" />
<glyph unicode="&gt;" glyph-name="greater" horiz-adv-x="650" d="M116 -14V70Q189 112 262 154T408 238Q335 280 262 322T116 406V490Q226 427 334 364T553 238Q443 175 335 112T116 -14Z" />
<glyph unicode="?" glyph-name="question" horiz-adv-x="452" d="M93 565Q79 570 66 575T38 585Q46 609 60 635T98 682T154 718T233 732Q274 732 310 717T372 675T414 613T429 537Q429 482 403 441T331 366Q316 354 300 344T270 321T248 289T239 242V164H176V261Q176
292 186 312T214 347T254 375T299 409Q334 436 350 468T366 537Q366 566 356 590T329 633T287 661T233 671Q176 671 143 644T93 565ZM207 8Q191 8 178 19T165 50Q165 68 178 80T207 93Q223 93 236 81T249 50Q249 31 236 20T207 8Z" />
<glyph unicode="@" glyph-name="at" horiz-adv-x="990" d="M351 188Q351 159 361 135T389 92T432 64T486 53Q516 53 541 63T584 92T612 134T623 188Q623 216 613 241T584 284T541 312T486 323Q457 323 432 313T389 284T361 241T351 188ZM902 188Q899 134 881 98T838
40T783 9T727 0H630V30V63Q626 53 614 41T584 18T541 0T486 -8Q444 -8 408 7T346 49T304 111T288 187Q288 227 303 262T345 324T408 366T486 382Q513 382 537 374T581 355T612 331T630 308Q630 324 631 341T634 375H685V61H729Q751 61 770 68T805 90T829 129T839
188Q839 261 812 325T737 438T625 514T489 542Q416 542 352 514T240 438T165 326T137 188Q137 115 164 51T240 -61T352 -136T489 -164Q549 -164 602 -146T701 -96Q711 -108 720 -119T739 -141Q689 -182 622 -203T489 -225Q403 -225 328 -193T196 -104T107 27T74
189Q74 275 106 350T195 481T327 569T489 602Q575 602 650 570T781 481T869 350T902 188Z" />
<glyph unicode="A" glyph-name="A" horiz-adv-x="740" d="M380 563Q378 571 376 578T371 594Q351 531 324 470T271 348H470Q447 402 425 455T380 563ZM681 0H618Q587 72 557 144T496 289H245Q215 217 185 145T123 0H61Q139 184 216 366T371 732Q449 548 526 366T681 0Z" />
<glyph unicode="B" glyph-name="B" horiz-adv-x="535" d="M128 640V382H248Q313 382 351 419T389 517Q389 583 349 611T245 640H128ZM128 322V59H250Q284 59 314 67T366 91T402 131T415 188Q415 223 400 248T360 290T302 314T235 322H128ZM66 0V700H237Q285 700
324 690T392 659T436 605T452 525Q452 463 422 416T330 352Q359 346 385 332T432 296T465 245T477 180Q477 135 459 102T409 46T338 12T255 0H66Z" />
<glyph unicode="C" glyph-name="C" horiz-adv-x="670" d="M567 92L601 42Q561 19 516 6T419 -8Q345 -8 280 20T167 96T90 210T62 349Q62 423 90 488T166 602T280 679T419 708Q470 708 515 695T602 658Q594 645 585 633T567 607Q500 648 419 648Q358 648 305 625T211
560T148 465T124 349Q124 287 147 233T210 139T303 75T418 51Q459 51 496 61T567 92Z" />
<glyph unicode="D" glyph-name="D" horiz-adv-x="652" d="M68 700H223Q295 700 359 676T471 605T547 495T575 349Q575 290 555 228T488 116T369 33T189 0H68V700ZM130 640V60H208Q279 60 335 83T431 145T492 237T513 350Q513 416 490 470T427 561T333 619T218 640H130Z" />
<glyph unicode="E" glyph-name="E" horiz-adv-x="601" d="M77 0V700H500V640H139V382H461V323H139V59H514V0H77Z" />
<glyph unicode="F" glyph-name="F" horiz-adv-x="587" d="M77 0V700H500V640H139V382H461V323H139V0H77Z" />
<glyph unicode="G" glyph-name="G" horiz-adv-x="687" d="M415 240V300H550Q579 300 590 288T601 244V42Q561 19 516 6T419 -8Q345 -8 280 20T167 96T90 210T62 349Q62 423 90 488T166 602T280 679T419 708Q470 708 515 695T602 658Q594 645 585 633T567 607Q500
648 419 648Q358 648 305 625T211 560T148 465T124 349Q124 287 147 233T210 139T303 75T418 51Q483 51 539 78V191V213Q539 227 535 233T514 240H415Z" />
<glyph unicode="H" glyph-name="H" horiz-adv-x="700" d="M86 0V700H148V382H552V700H615Q615 524 615 350T614 0H552V323H148V0H86Z" />
<glyph unicode="I" glyph-name="I" horiz-adv-x="263" d="M101 700H164V0H101V700Z" />
<glyph unicode="J" glyph-name="J" horiz-adv-x="327" d="M17 -143V-84Q52 -82 82 -70T133 -35T167 20T179 93V700H241V90Q241 34 224 -9T176 -81T105 -126T17 -143Z" />
<glyph unicode="K" glyph-name="K" horiz-adv-x="600" d="M569 0H493Q418 95 344 189T195 378Q176 360 158 343T121 308V0H59V700H121V406Q120 398 120 391T119 375Q124 381 128 386T137 397L455 700H533Q458 629 385 559T237 418Q321 313 403 210T569 0Z" />
<glyph unicode="L" glyph-name="L" horiz-adv-x="593" d="M77 0V700H139V59H514V0H77Z" />
<glyph unicode="M" glyph-name="M" horiz-adv-x="937" d="M100 732Q192 613 283 495T466 257Q558 376 649 494T832 732V0H770V458V522Q770 532 770 540T772 558Q700 455 622 356T466 156Q398 245 331 332T196 509L175 536Q171 541 168 547T160 558Q161 549 161
541T162 522V0H100V732Z" />
<glyph unicode="N" glyph-name="N" horiz-adv-x="813" d="M711 700V-32Q577 117 445 263T178 559Q173 566 169 572T159 585Q160 577 160 569T162 553V0H100V732Q234 581 366 432T633 132Q638 125 642 119T652 106Q651 114 651 122T649 138V700H711Z" />
<glyph unicode="O" glyph-name="O" horiz-adv-x="840" d="M62 349Q62 423 90 488T166 602T280 679T419 708Q493 708 558 680T672 603T749 489T778 349Q778 275 750 210T673 97T559 20T419 -8Q345 -8 280 20T167 96T90 210T62 349ZM124 349Q124 287 147 233T210
139T304 75T419 51Q480 51 534 74T628 138T692 233T716 349Q716 410 693 464T629 560T535 624T420 648Q359 648 305 625T211 560T148 465T124 349Z" />
<glyph unicode="P" glyph-name="P" horiz-adv-x="476" d="M128 381H223Q271 381 303 393T353 425T379 468T387 514Q387 539 375 562T341 602T289 630T224 641H128V381ZM66 0V700H223Q256 700 295 690T368 657T426 599T449 514Q449 426 395 374T238 321H128V0H66Z" />
<glyph unicode="Q" glyph-name="Q" horiz-adv-x="842" d="M124 349Q124 287 147 233T210 139T303 75T418 51Q479 51 533 74T628 138T692 233T716 349Q716 410 693 464T629 560T534 624T419 648Q358 648 305 625T211 560T148 465T124 349ZM62 349Q62 423 90 488T166
602T280 679T419 708Q493 708 558 680T672 603T749 489T778 349Q778 257 735 181T620 59H800V0H493Q455 -8 419 -8Q345 -8 280 20T167 96T90 210T62 349Z" />
<glyph unicode="R" glyph-name="R" horiz-adv-x="512" d="M128 381H223Q271 381 303 393T353 425T379 468T387 514Q387 539 375 562T341 602T289 630T224 641H128V381ZM66 0V700H223Q256 700 295 690T368 657T426 599T449 514Q449 440 411 391T301 326Q339 245
377 164T455 0H387Q349 81 311 161T235 322Q229 321 223 321T209 321H128V0H66Z" />
<glyph unicode="S" glyph-name="S" horiz-adv-x="557" d="M440 636Q431 625 423 613T405 590Q396 598 383 607T353 625T316 638T271 644Q239 644 215 634T176 606T152 567T144 519Q144 492 153 474T179 442T216 420T262 403Q294 392 333 377T405 337T461 276T484
187Q484 142 468 106T423 45T356 6T275 -8Q236 -8 202 2T140 28T90 62T56 98L96 138Q110 123 127 108T166 80T213 59T269 51Q299 51 326 60T375 86T409 128T422 186Q422 228 402 255T353 300T291 328T231 349Q213 356 188 367T139 397T100 445T82 517Q81 550 90
583T122 643T181 687T271 704Q310 704 351 691T440 636Z" />
<glyph unicode="T" glyph-name="T" horiz-adv-x="553" d="M553 700V640H308V0H246V640H0V700H553Z" />
<glyph unicode="U" glyph-name="U" horiz-adv-x="652" d="M328 -8Q275 -8 231 7T154 51T103 125T84 226V700H146V229Q146 186 159 153T197 98T254 63T328 51Q367 51 400 63T458 97T496 153T510 229V700H572V226Q572 169 554 125T502 52T425 7T328 -8Z" />
<glyph unicode="V" glyph-name="V" horiz-adv-x="722" d="M611 700H674Q596 516 519 334T364 -32Q286 152 209 334T54 700H117Q177 558 236 419T355 137Q357 129 359 122T364 106Q366 114 368 121T373 137Q433 279 492 418T611 700Z" />
<glyph unicode="W" glyph-name="W" horiz-adv-x="1108" d="M984 700H1047Q969 516 892 334T737 -32L560 385Q558 393 555 400T550 416Q533 360 511 304T463 191T413 78T364 -32Q286 152 209 334T54 700H117Q177 558 235 419T355 137Q357 129 359 122T364 106Q378
154 397 201T436 295T478 389T519 482Q496 537 473 591T427 700H489Q549 558 608 419T728 137Q730 129 732 122T737 106Q739 114 741 121T746 137Q806 279 865 418T984 700Z" />
<glyph unicode="X" glyph-name="X" horiz-adv-x="700" d="M325 358L103 700H179Q224 631 267 564T356 429Q360 418 367 406Q370 411 373 417T379 429Q423 497 466 564T554 700H630L405 352Q463 264 520 177T635 0H558L385 264Q379 274 374 284T362 305Q360 299
357 293T351 281Q305 210 260 141T170 0H93Q152 90 209 179T325 358Z" />
<glyph unicode="Y" glyph-name="Y" horiz-adv-x="638" d="M356 267V0H280V268Q215 376 152 483T23 700H99Q151 612 203 527T306 353Q309 346 311 339T317 324H318Q321 331 324 338T330 353Q382 441 433 526T536 700H612Q548 591 484 484T356 267Z" />
<glyph unicode="Z" glyph-name="Z" horiz-adv-x="700" d="M190 700H611V640Q497 494 385 350T158 60H640V0H81V60Q195 206 307 350T534 640H167Q136 640 117 655T97 699V735H160V723Q160 709 166 705T190 700Z" />
<glyph unicode="[" glyph-name="bracketleft" horiz-adv-x="338" d="M83 -149V746H266V685H146V-88H266V-149H83Z" />
<glyph unicode="\" glyph-name="backslash" horiz-adv-x="365" d="M75 736Q145 546 214 359T353 -19H283Q213 171 144 358T5 736H75Z" />
<glyph unicode="]" glyph-name="bracketright" horiz-adv-x="342" d="M251 746V-149H68V-88H188V685H68V746H251Z" />
<glyph unicode="^" glyph-name="asciicircum" horiz-adv-x="470" d="M232 660Q262 615 292 570T352 479H306Q287 503 269 527T232 576Q213 551 195 527T158 479H112Q142 524 172 569T232 660Z" />
<glyph unicode="_" glyph-name="underscore" horiz-adv-x="600" d="M500 0H100V61H500V0Z" />
<glyph unicode="`" glyph-name="grave" horiz-adv-x="200" d="M24 612Q47 579 69 546T114 479H68Q41 512 14 545T-40 612H24Z" />
<glyph unicode="a" glyph-name="a" horiz-adv-x="506" d="M112 188Q112 159 122 135T151 92T194 64T248 53Q277 53 302 63T345 92T373 134T384 188Q384 216 374 241T345 284T302 312T248 323Q219 323 194 313T151 284T123 241T112 188ZM49 187Q49 227 64 262T106
325T169 368T248 384Q276 384 300 376T344 356T375 331T391 308Q391 324 392 341T395 375H446V0H391V39V64Q388 54 377 42T347 18T303 0T248 -8Q206 -8 170 7T107 49T65 111T49 187Z" />
<glyph unicode="b" glyph-name="b" horiz-adv-x="531" d="M416 188Q416 216 406 241T378 284T335 312T280 323Q251 323 226 313T183 284T155 241T144 188Q144 159 154 135T183 92T226 64T280 53Q310 53 335 63T378 92T406 134T416 188ZM479 188Q479 148 464 113T422
50T359 8T280 -8Q250 -8 225 -1T182 18T152 41T137 64V39V0H82V750H144V348Q142 337 141 328T137 309Q140 319 152 332T184 356T227 376T280 384Q322 384 358 369T421 326T463 264T479 188Z" />
<glyph unicode="c" glyph-name="c" horiz-adv-x="391" d="M321 82Q339 59 359 35Q333 15 302 4T234 -8Q193 -8 157 7T94 49T52 111T36 188Q36 228 51 264T94 326T157 368T234 384Q271 384 302 373T360 341Q350 329 340 318T321 294Q303 308 281 315T234 323Q205
323 180 313T137 284T109 241T98 188Q98 159 108 135T137 92T180 64T234 53Q260 53 281 60T321 82Z" />
<glyph unicode="d" glyph-name="d" horiz-adv-x="526" d="M114 188Q114 159 124 135T152 92T195 64T250 53Q279 53 304 63T347 92T375 134T386 188Q386 216 376 241T347 284T304 312T250 323Q220 323 195 313T152 284T124 241T114 188ZM51 188Q51 228 66 263T108
326T171 368T250 384Q278 384 302 376T346 357T377 332T393 309Q391 319 390 328T386 348V750H448V0H393V39V64Q390 54 379 42T349 18T305 0T250 -8Q208 -8 172 7T109 50T67 112T51 188Z" />
<glyph unicode="e" glyph-name="e" horiz-adv-x="451" d="M234 323Q184 323 148 293T103 218Q101 208 101 198T100 178Q157 200 214 221T328 265Q313 291 289 307T234 323ZM408 230L117 119Q134 89 164 71T234 53Q261 53 284 63T325 90Q334 79 343 68T363 45Q337
20 305 6T234 -8Q193 -8 157 7T94 49T52 111T36 188Q36 228 51 264T94 326T157 368T234 384Q265 384 292 373T342 341T382 292T408 230Z" />
<glyph unicode="f" glyph-name="f" horiz-adv-x="311" d="M22 319V380H86V517Q86 573 103 616T151 688T222 733T310 751V691Q276 690 247 678T196 643T162 588T149 516V380H269V319H149V0H86V319H22Z" />
<glyph unicode="g" glyph-name="g" horiz-adv-x="518" d="M112 188Q112 159 122 135T151 92T194 64T248 53Q277 53 302 63T345 92T373 134T384 188Q384 216 374 241T345 284T302 312T248 323Q219 323 194 313T151 284T123 241T112 188ZM395 375H446V-17V-47Q446
-92 431 -129T390 -193T328 -235T252 -250Q207 -249 166 -232T95 -190Q106 -177 116 -165T137 -140Q158 -160 188 -173T250 -186Q278 -186 302 -175T345 -145T373 -99T384 -40V30Q386 38 387 46T391 62Q386 51 374 39T343 17T300 0T248 -7Q206 -7 170 8T107 50T65
112T49 187Q49 227 64 262T106 325T169 368T248 384Q276 384 300 376T344 356T375 331T391 308Q391 324 392 341T395 375Z" />
<glyph unicode="h" glyph-name="h" horiz-adv-x="512" d="M92 750H155V323L152 278Q173 326 215 353T315 383Q372 383 405 352T440 271V0H378V247Q376 276 357 298T297 322Q269 322 243 312T198 285T167 245T155 193V0H92V750Z" />
<glyph unicode="i" glyph-name="i" horiz-adv-x="194" d="M56 514Q56 532 69 544T99 557Q114 557 127 545T140 514Q140 495 127 484T99 472Q82 472 69 483T56 514ZM129 0H66V375H129V0Z" />
<glyph unicode="j" glyph-name="j" horiz-adv-x="225" d="M77 514Q77 532 90 544T119 557Q135 557 148 545T161 514Q161 495 148 484T119 472Q103 472 90 483T77 514ZM75 -181Q64 -169 54 -158T32 -135Q57 -112 71 -79T86 -1V376Q102 376 117 376T148 375V-2Q148
-62 129 -107T75 -181Z" />
<glyph unicode="k" glyph-name="k" horiz-adv-x="449" d="M327 384L364 347Q329 314 298 284T231 220Q271 165 311 110T391 0H319Q286 45 253 89T186 179Q172 166 158 153T130 126V0H68V750H130V200Q181 248 228 292T327 384Z" />
<glyph unicode="l" glyph-name="l" horiz-adv-x="191" d="M129 0H66V750H129V0Z" />
<glyph unicode="m" glyph-name="m" horiz-adv-x="796" d="M92 375H148V353Q149 333 150 316T152 278Q172 326 215 354T315 383Q369 383 401 356T439 283Q461 329 503 355T601 383Q658 383 691 352T726 271V0H664V247Q662 276 643 298T583 322Q555 322 530 313T485
286T453 246T440 195V0H378V247Q376 276 357 298T297 322Q269 322 243 312T198 285T167 245T155 193V0H92V375Z" />
<glyph unicode="n" glyph-name="n" horiz-adv-x="495" d="M92 375H148V353Q149 333 150 316T152 278Q172 326 216 354T315 383Q372 383 405 352T440 271V0H378V247Q376 276 357 298T297 322Q269 322 243 312T198 285T167 245T155 193V0H92V375Z" />
<glyph unicode="o" glyph-name="o" horiz-adv-x="473" d="M36 188Q36 228 51 264T94 326T157 368T234 384Q276 384 312 369T376 327T418 264T434 188Q434 147 419 112T376 50T313 8T234 -8Q193 -8 157 7T94 49T52 111T36 188ZM98 187Q98 159 108 135T137 92T180
64T233 53Q261 53 285 63T328 92T357 134T368 187Q368 215 358 240T329 283T286 312T233 323Q205 323 181 313T138 284T109 240T98 187Z" />
<glyph unicode="p" glyph-name="p" horiz-adv-x="525" d="M401 188Q401 216 391 240T363 283T320 311T265 322Q236 322 211 312T168 283T140 241T129 188Q129 159 139 135T168 92T211 63T265 52Q295 52 320 62T363 91T391 134T401 188ZM464 188Q464 147 449 112T407
49T344 7T265 -9Q235 -9 210 -1T167 18T137 41T122 63Q124 55 126 48T130 32V-250H67V375H119Q119 358 120 341T122 307Q125 317 137 330T169 355T212 375T265 383Q307 383 343 368T406 326T448 264T464 188Z" />
<glyph unicode="q" glyph-name="q" horiz-adv-x="512" d="M113 188Q113 159 123 135T152 92T195 63T249 52Q278 52 303 62T346 91T374 134T385 188Q385 216 375 240T346 283T303 311T249 322Q220 322 195 312T152 283T124 241T113 188ZM50 188Q50 228 65 263T108
325T171 367T249 383Q277 383 301 375T345 355T376 330T393 307Q393 324 394 341T395 375H448V-250H385V32Q387 40 388 47T392 63Q389 53 378 41T348 18T304 -1T249 -9Q207 -9 171 6T108 49T66 111T50 188Z" />
<glyph unicode="r" glyph-name="r" horiz-adv-x="331" d="M298 322Q267 322 241 312T195 285T166 245T155 193V0H92V375H148V353Q149 333 150 316T152 278Q164 303 182 322T220 355T262 376T302 383L298 322Z" />
<glyph unicode="s" glyph-name="s" horiz-adv-x="353" d="M288 340Q280 329 271 317T253 294Q245 303 227 312T185 322Q162 322 146 310T132 273Q133 256 146 246T179 228T219 212T260 191T291 158T303 107Q303 92 297 72T277 34T239 4T178 -8Q145 -8 111 4T57
39Q67 50 76 61T95 84Q115 69 135 61T180 53Q185 53 195 55T214 63T232 79T240 106Q241 128 229 139T198 158T157 172T115 190T82 220T69 274Q69 303 80 323T108 357T144 376T182 382Q192 382 206 380T235 373T263 360T288 340Z" />
<glyph unicode="t" glyph-name="t" horiz-adv-x="293" d="M116 619H178V379H285V318H178V0H116V318H31V379H116V619Z" />
<glyph unicode="u" glyph-name="u" horiz-adv-x="529" d="M440 -6H378V52L381 97Q361 49 317 21T218 -8Q161 -8 128 23T92 104V375H155V128Q157 98 176 77T236 53Q264 53 290 62T335 89T366 130T378 182V375H440V-6Z" />
<glyph unicode="v" glyph-name="v" horiz-adv-x="500" d="M265 -23Q211 77 159 176T54 375H117Q154 305 195 232T265 86Q293 158 334 231T413 375H475Q422 275 370 176T265 -23Z" />
<glyph unicode="w" glyph-name="w" horiz-adv-x="772" d="M359 309Q351 326 343 342T327 375H389Q424 303 461 231T527 86Q556 159 593 231T664 375H727Q676 275 627 176T527 -23Q493 45 459 112T391 247Q357 179 323 112T255 -23Q204 77 155 176T55 375H117Q152
303 189 231T255 86Q278 143 305 198T359 309Z" />
<glyph unicode="x" glyph-name="x" horiz-adv-x="448" d="M172 197Q140 242 107 286T42 375H119Q146 338 173 302T227 229Q253 265 279 301T332 375H409Q373 325 337 276T266 177Q298 132 331 89T397 0H318Q291 36 265 72T211 146Q185 109 158 73T105 0H28Q64
49 100 98T172 197Z" />
<glyph unicode="y" glyph-name="y" horiz-adv-x="496" d="M160 -250H96Q128 -187 158 -126T221 -1Q173 93 127 187T32 375H95Q135 297 178 217T253 56Q285 137 328 217T410 375H473Q395 218 317 63T160 -250Z" />
<glyph unicode="z" glyph-name="z" horiz-adv-x="451" d="M150 375H384V314Q315 249 257 187T129 61H405V0H42V61Q111 125 169 187T297 315H127Q96 315 77 330T57 374V410H120V398Q120 384 126 380T150 375Z" />
<glyph unicode="{" glyph-name="braceleft" horiz-adv-x="306" d="M30 265V329Q54 330 69 343T94 377T106 420T109 464V628Q109 674 118 698T142 733T176 745T217 746H273V685H225Q210 685 200 681T184 664T176 632T173 579V444Q173 408 167 384T151 342T130 315T107
298Q118 292 129 282T151 254T167 212T173 153V18Q173 -14 175 -34T184 -67T200 -83T225 -88H273V-149H217Q195 -149 176 -148T141 -136T118 -98T109 -20V130Q109 150 106 173T94 217T70 250T30 265Z" />
<glyph unicode="|" glyph-name="bar" horiz-adv-x="255" d="M93 -232V700H156V-232H93Z" />
<glyph unicode="}" glyph-name="braceright" horiz-adv-x="320" d="M290 329V265Q264 264 248 249T224 211T214 163T211 119V-31Q211 -77 202 -101T178 -136T144 -148T103 -149H47V-88H95Q110 -88 120 -84T136 -67T144 -35T147 18V164Q147 195 154 218T171 257T192
282T213 298Q202 305 191 315T169 342T153 383T147 444V579Q147 611 145 631T136 664T120 680T95 685H47V746H103Q124 746 143 745T178 734T202 699T211 628V475Q211 455 213 431T224 384T248 346T290 329Z" />
<glyph unicode="~" glyph-name="asciitilde" horiz-adv-x="489" d="M269 486Q254 503 243 508T217 513Q210 513 201 511T183 504T168 489T160 464L124 467Q125 486 133 501T154 527T182 543T213 549Q235 549 252 540T287 514Q302 497 314 492T340 487Q347 487
356 489T373 496T388 511T397 536Q405 535 414 535T432 533Q431 513 423 498T402 473T374 457T344 452Q321 452 304 461T269 486Z" />
<glyph unicode="&#xa0;" glyph-name="space" horiz-adv-x="300" />
<glyph unicode="&#xa1;" glyph-name="exclamdown" horiz-adv-x="200" d="M100 529Q84 529 71 517T58 486Q58 467 71 456T100 444Q116 444 129 455T142 486Q142 505 129 517T100 529V529ZM68 -210H131V374H68V-210Z" />
<glyph unicode="&#xa2;" glyph-name="cent" horiz-adv-x="385" d="M98 188Q98 143 123 109T190 62V313Q149 301 124 267T98 188ZM321 82Q339 59 359 35Q312 -2 253 -7V-68H190V-2Q157 5 129 22T80 65T48 121T36 188Q36 222 47 253T79 310T128 353T190 378V438H253V382Q282
380 310 369T360 341Q350 329 340 318T321 294Q306 305 289 312T253 321V54Q291 59 321 82Z" />
<glyph unicode="&#xa3;" glyph-name="sterling" horiz-adv-x="574" d="M165 61H348H360Q391 61 411 63T444 72T461 88T466 113V161H529V85Q529 67 526 52T510 25T475 7T411 0H28V61H72Q88 61 98 65T114 83T122 118T124 176V284H59V345H124V500Q124 569 178 601T326
634Q393 634 431 606T490 537Q479 530 467 524T443 510Q435 522 427 533T406 553T374 567T326 573Q253 573 220 553T187 486V345H308V284H187V159V147Q187 118 184 97T165 61Z" />
<glyph unicode="&#xa4;" glyph-name="currency" horiz-adv-x="500" d="M158 360Q158 323 184 297T248 271Q285 271 311 297T338 360Q338 398 312 424T248 451Q211 451 185 425T158 360ZM95 361Q95 384 102 404T120 442Q112 449 106 455T92 470L136 514L165 486Q183
497 203 504T247 511Q292 511 330 486L358 514L402 470L376 443Q387 425 394 404T401 361Q401 315 374 277L403 248L359 204Q351 212 344 219T328 234Q293 210 247 210Q201 210 166 233L136 203L92 247L121 276Q109 294 102 315T95 361Z" />
<glyph unicode="&#xa5;" glyph-name="yen" horiz-adv-x="638" d="M483 161V100H356V0H280V100H150V161H280V263H150V324H247Q190 418 135 511T23 700H99Q151 612 202 527T306 353Q309 346 311 339T317 324H318Q321 331 324 338T330 353Q382 441 433 526T536 700H612Q556
605 501 512T389 324H483V263H356V161H483Z" />
<glyph unicode="&#xa6;" glyph-name="brokenbar" horiz-adv-x="215" d="M142 -233H79V117H142V-233ZM142 350H79V700H142V350Z" />
<glyph unicode="&#xa7;" glyph-name="section" horiz-adv-x="500" d="M188 345Q193 318 213 302T262 286Q293 287 313 310T332 363Q331 379 324 392T307 415T283 430T254 434Q236 433 222 425T199 405T187 377T188 345ZM226 150Q203 186 189 210T167 249T153 273T145
289Q132 311 128 336T128 385T145 432T179 469Q215 493 262 487Q249 507 238 527T215 568Q197 598 191 620T187 658T198 686T220 707Q235 720 255 730T293 752Q309 724 325 700Q314 694 304 688T282 676Q258 661 258 641T283 576Q306 538 327 501T372 426Q385 404
389 379T388 330T370 285T335 249Q298 223 252 229Q265 209 277 188T301 147Q319 117 325 95T330 56T319 28T297 7Q281 -6 262 -16T224 -38Q216 -25 209 -12T193 15L235 39Q248 46 254 55T259 76T250 106T226 150Z" />
<glyph unicode="&#xa8;" glyph-name="dieresis" horiz-adv-x="370" d="M225 514Q225 532 237 544T267 557Q283 557 296 545T309 514Q309 495 296 484T267 472Q250 472 238 483T225 514ZM59 514Q59 532 72 544T101 557Q117 557 130 545T143 514Q143 495 130 484T101
472Q85 472 72 483T59 514Z" />
<glyph unicode="&#xa9;" glyph-name="copyright" horiz-adv-x="793" d="M400 143Q448 143 489 160T562 208T610 281T628 372Q628 422 611 464T562 537T490 585T400 602Q352 602 311 585T238 537T190 464T172 372Q172 323 189 281T238 209T310 161T400 143ZM400
113Q346 113 299 132T216 187T160 269T139 372Q139 428 159 476T215 558T298 612T400 632Q454 632 501 613T584 559T640 476T661 372Q661 316 641 269T585 187T502 133T400 113ZM473 259L489 236Q471 225 450 219T406 213Q373 213 344 226T292 261T258 312T245
375Q245 409 257 438T292 490T343 524T406 537Q451 537 489 515Q485 509 482 503T473 492Q443 510 406 510Q379 510 355 500T312 471T284 428T273 375Q273 347 283 323T312 280T354 251T406 240Q441 240 473 259Z" />
<glyph unicode="&#xaa;" glyph-name="ordfeminine" horiz-adv-x="585" d="M139 442Q139 421 146 403T167 372T198 352T237 344Q258 344 276 351T307 372T327 403T335 442Q335 462 328 480T307 511T276 531T237 539Q216 539 198 532T167 511T147 480T139 442ZM93
441Q93 470 104 495T135 540T180 571T237 583Q257 583 274 577T306 563T329 545T340 528Q340 540 341 552T343 576H380V306H340V334V352Q338 345 330 336T308 319T277 306T237 300Q207 300 181 311T135 342T105 386T93 441Z" />
<glyph unicode="&#xab;" glyph-name="guillemotleft" horiz-adv-x="601" d="M459 77L288 239Q331 280 373 319T459 400V329Q436 306 415 284T371 239Q393 216 414 194T459 148V77ZM288 77L117 239Q160 280 202 319T288 400V328Q265 306 244 284T200 239Q222 216
243 194T288 148V77Z" />
<glyph unicode="&#xac;" glyph-name="logicalnot" horiz-adv-x="559" d="M397 148V200H100V246H460V148H397Z" />
<glyph unicode="&#xae;" glyph-name="registered" horiz-adv-x="801" d="M400 143Q448 143 489 160T562 208T610 281T628 372Q628 422 611 464T562 537T490 585T400 602Q352 602 311 585T238 537T190 464T172 372Q172 323 189 281T238 209T310 161T400 143ZM400
113Q346 113 299 132T216 187T160 269T139 372Q139 428 159 476T215 558T298 612T400 632Q454 632 501 613T584 559T640 476T661 372Q661 316 641 269T585 187T502 133T400 113ZM354 390H399Q422 390 437 396T460 411T472 432T476 453Q476 477 454 495T399 513H354V390ZM324
210V541H399Q414 541 433 536T468 521T495 494T506 453Q506 418 488 395T435 364Q454 326 472 288T508 210H476Q459 248 441 286T404 362H392H354V210H324Z" />
<glyph unicode="&#xaf;" glyph-name="macron" horiz-adv-x="399" d="M85 482V523H315V482H85Z" />
<glyph unicode="0;" glyph-name="degree" horiz-adv-x="282" d="M138 507Q160 507 175 522T191 559Q191 582 176 597T138 612Q116 612 101 597T85 559Q85 537 100 522T138 507ZM43 560Q43 599 70 626T138 653Q157 653 174 646T203 626T223 596T231 560Q231
540 224 524T204 494T174 474T138 467Q98 467 71 494T43 560Z" />
<glyph unicode="1;" glyph-name="plusminus" horiz-adv-x="524" d="M234 211V360H86V421H234V571H297V421H446V360H297V211H234ZM446 111H86V172H446V111Z" />
<glyph unicode="2;" glyph-name="twosuperior" horiz-adv-x="398" d="M178 405H315V375H103Q134 406 163 435T214 491T250 544T264 593Q264 615 258 629T242 653T220 666T198 670Q178 670 165 663T145 646T134 623T131 602Q131 570 150 549L131 530Q124 536
118 544T108 562T102 582T100 602Q100 621 106 639T125 670T155 692T198 700Q220 700 238 692T268 671T288 639T295 599Q295 574 285 549T258 500T220 453T178 405Z" />
<glyph unicode="3;" glyph-name="threesuperior" horiz-adv-x="419" d="M128 545Q149 577 168 608T208 670H100V700H261Q241 670 222 640T182 581Q199 577 215 568T242 546T259 517T266 481Q266 459 258 440T235 407T202 385T160 376Q137 376 117 385T83 410Q88
415 94 420T106 432Q116 420 129 413T160 406Q175 406 189 412T213 428T229 452T235 481Q235 496 230 509T214 533T189 549T160 555Q143 555 128 545Z" />
<glyph unicode="4;" glyph-name="acute" horiz-adv-x="257" d="M100 479Q123 512 145 545T190 612H254Q227 579 200 546T146 479H100Z" />
<glyph unicode="5;" glyph-name="mu" horiz-adv-x="545" d="M440 -6H378V52L381 97Q360 49 317 21T218 -8Q177 -8 155 13V-201H92V375H155V128Q157 98 176 77T236 53Q264 53 290 62T335 89T366 130T378 182V375H440V-6Z" />
<glyph unicode="6;" glyph-name="paragraph" horiz-adv-x="530" d="M263 0H201V423Q167 423 137 435T85 470T51 522T38 586Q38 620 50 650T85 702T137 737T201 750H426V0H364V689H263V0Z" />
<glyph unicode="7;" glyph-name="periodcentered" horiz-adv-x="166" d="M43 281Q43 300 56 312T85 324Q101 324 114 312T127 281Q127 262 114 251T85 239Q69 239 56 250T43 281Z" />
<glyph unicode="8;" glyph-name="cedilla" horiz-adv-x="452" d="M187 0H227V-7Q227 -21 231 -29T241 -43T254 -53T268 -61Q290 -77 298 -96T307 -138Q307 -183 281 -212T209 -242Q177 -242 150 -225T112 -172L148 -154Q154 -171 168 -182T204 -194Q230 -194
245 -177T260 -134Q260 -112 249 -99T224 -77T199 -57T187 -29V0Z" />
<glyph unicode="9;" glyph-name="onesuperior" horiz-adv-x="266" d="M62 672V700H128V401H99V672H62Z" />
<glyph unicode="a;" glyph-name="ordmasculine" horiz-adv-x="469" d="M91 442Q91 470 102 496T132 541T178 572T234 583Q264 583 290 572T336 542T367 496T378 442Q378 412 367 387T337 342T291 312T234 300Q204 300 178 311T133 342T102 386T91 442ZM136
441Q136 421 143 403T164 372T195 352T233 344Q253 344 271 351T302 372T322 403T330 441Q330 461 323 479T302 510T271 531T233 539Q213 539 196 532T165 511T144 479T136 441Z" />
<glyph unicode="b;" glyph-name="guillemotright" horiz-adv-x="601" d="M117 77L288 239Q245 280 203 319T117 400V329Q140 306 161 284T205 239Q183 216 162 194T117 148V77ZM288 77L459 239Q416 280 374 319T288 400V328Q311 306 332 284T376 239Q354 216
333 194T288 148V77Z" />
<glyph unicode="c;" glyph-name="onequarter" horiz-adv-x="968" d="M268 -19Q338 171 407 358T546 736H609Q539 546 470 359T331 -19H268ZM727 353Q693 310 661 268T596 182H727V353ZM501 136Q570 225 637 313T773 490V182H845V136H773V0H727V136H501ZM126
652V695H228V234H184V652H126Z" />
<glyph unicode="d;" glyph-name="onehalf" horiz-adv-x="1069" d="M121 652V695H223V234H179V652H121ZM667 43H864V0H561Q605 44 646 86T720 167T771 243T791 313Q791 344 782 365T759 399T728 417T696 423Q667 423 649 413T620 388T605 356T600 325Q600 279
628 249L601 223Q590 230 582 242T568 268T559 297T556 325Q556 354 565 379T591 424T635 455T696 466Q728 466 753 455T797 424T826 378T836 322Q836 285 821 250T783 180T729 111T667 43ZM268 -19Q338 171 407 358T546 736H609Q539 546 470 359T331 -19H268Z"
/>
<glyph unicode="e;" glyph-name="threequarters" horiz-adv-x="1276" d="M214 465Q246 514 277 562T339 660H170V707H421Q390 660 360 614T298 520Q326 514 350 500T392 466T420 420T430 363Q430 329 417 300T382 248T329 212T265 199Q228 199 197 213T143
252Q152 261 161 269T179 286Q194 268 216 257T264 246Q288 246 309 255T347 281T372 318T382 363Q382 387 373 408T347 445T310 470T264 479Q238 479 214 465ZM450 -19Q520 171 589 358T728 736H791Q721 546 652 359T513 -19H450ZM926 353Q892 310 860 268T795
182H926V353ZM701 136Q769 225 836 313T973 490V182H1045V136H973V0H926V136H701Z" />
<glyph unicode="f;" glyph-name="questiondown" horiz-adv-x="439" d="M369 -26Q383 -31 396 -36T424 -46Q416 -70 402 -96T364 -143T308 -179T229 -193Q188 -193 152 -178T90 -136T48 -74T33 2Q33 57 59 98T131 173Q146 185 162 195T192 218T214 250T223
297V375H286V278Q286 247 276 227T248 192T208 164T163 130Q128 103 112 71T96 2Q96 -27 106 -51T133 -94T175 -122T229 -132Q286 -132 319 -105T369 -26ZM255 531Q271 531 284 520T297 489Q297 471 284 459T255 446Q239 446 226 458T213 489Q213 508 226 519T255
531Z" />
<glyph unicode="0;" glyph-name="Agrave" horiz-adv-x="740" d="M380 563Q378 571 376 578T371 594Q351 531 324 470T271 348H470Q447 402 425 455T380 563ZM681 0H618Q587 72 557 144T496 289H245Q215 217 185 145T123 0H61Q139 184 216 366T371 732Q449
548 526 366T681 0ZM299 883Q322 850 344 817T389 750H343Q316 783 289 816T235 883H299Z" />
<glyph unicode="1;" glyph-name="Aacute" horiz-adv-x="740" d="M380 563Q378 571 376 578T371 594Q351 531 324 470T271 348H470Q447 402 425 455T380 563ZM681 0H618Q587 72 557 144T496 289H245Q215 217 185 145T123 0H61Q139 184 216 366T371 732Q449
548 526 366T681 0ZM346 750Q369 783 391 816T436 883H500Q473 850 446 817T392 750H346Z" />
<glyph unicode="2;" glyph-name="Acircumflex" horiz-adv-x="740" d="M380 563Q378 571 376 578T371 594Q351 531 324 470T271 348H470Q447 402 425 455T380 563ZM681 0H618Q587 72 557 144T496 289H245Q215 217 185 145T123 0H61Q139 184 216 366T371 732Q449
548 526 366T681 0ZM371 931Q401 886 431 841T491 750H445Q426 774 408 798T371 847Q352 822 334 798T297 750H251Q281 795 311 840T371 931Z" />
<glyph unicode="3;" glyph-name="Atilde" horiz-adv-x="740" d="M380 563Q378 571 376 578T371 594Q351 531 324 470T271 348H470Q447 402 425 455T380 563ZM681 0H618Q587 72 557 144T496 289H245Q215 217 185 145T123 0H61Q139 184 216 366T371 732Q449
548 526 366T681 0ZM360 785Q345 802 334 807T308 812Q301 812 292 810T274 803T259 788T251 763L215 766Q216 785 224 800T245 826T273 842T304 848Q326 848 343 839T378 813Q393 796 405 791T431 786Q438 786 447 788T464 795T479 810T488 835Q496 834 505 834T523
832Q522 812 514 797T493 772T465 756T435 751Q412 751 395 760T360 785Z" />
<glyph unicode="4;" glyph-name="Adieresis" horiz-adv-x="740" d="M380 563Q378 571 376 578T371 594Q351 531 324 470T271 348H470Q447 402 425 455T380 563ZM681 0H618Q587 72 557 144T496 289H245Q215 217 185 145T123 0H61Q139 184 216 366T371 732Q449
548 526 366T681 0ZM413 804Q413 822 425 834T455 847Q471 847 484 835T497 804Q497 785 484 774T455 762Q438 762 426 773T413 804ZM247 804Q247 822 260 834T289 847Q305 847 318 835T331 804Q331 785 318 774T289 762Q273 762 260 773T247 804Z" />
<glyph unicode="5;" glyph-name="Aring" horiz-adv-x="740" d="M334 836Q334 821 345 810T371 799Q387 799 398 810T409 836Q409 852 398 863T371 874Q356 874 345 863T334 836ZM291 837Q291 853 297 867T314 893T339 910T371 917Q387 917 402 911T427 893T444
868T451 837Q451 804 428 781T371 757Q338 757 315 780T291 837ZM380 563Q378 571 376 578T371 594Q351 531 324 470T271 348H470Q447 402 425 455T380 563ZM681 0H618Q587 72 557 144T496 289H245Q215 217 185 145T123 0H61Q139 184 216 366T371 732Q449 548 526
366T681 0Z" />
<glyph unicode="6;" glyph-name="AE" horiz-adv-x="796" d="M366 339V583Q346 521 319 461T266 339H366ZM60 0Q135 176 208 350T356 700H698V640H428V382H659V323H428V59H712V0H366V280H241Q212 209 182 140T123 0H60Z" />
<glyph unicode="7;" glyph-name="Ccedilla" horiz-adv-x="670" d="M567 92L601 42Q563 19 520 7T429 -8Q429 -22 433 -30T443 -44T457 -53T470 -61Q492 -77 501 -96T510 -138Q510 -183 484 -212T411 -242Q379 -242 353 -225T314 -172Q323 -167 332 -163T351
-154Q356 -171 370 -182T406 -194Q432 -194 447 -177T462 -134Q462 -112 451 -99T426 -77T401 -57T389 -29V-6Q320 -1 261 29T157 106T88 216T62 349Q62 423 90 488T166 602T280 679T419 708Q470 708 515 695T602 658Q594 645 585 633T567 607Q500 648 419 648Q358
648 305 625T211 560T148 465T124 349Q124 287 147 233T210 139T303 75T418 51Q459 51 496 61T567 92Z" />
<glyph unicode="8;" glyph-name="Egrave" horiz-adv-x="601" d="M77 0V700H500V640H139V382H461V323H139V59H514V0H77ZM225 883Q248 850 270 817T315 750H269Q242 783 215 816T161 883H225Z" />
<glyph unicode="9;" glyph-name="Eacute" horiz-adv-x="601" d="M77 0V700H500V640H139V382H461V323H139V59H514V0H77ZM267 750Q290 783 312 816T357 883H421Q394 850 367 817T313 750H267Z" />
<glyph unicode="a;" glyph-name="Ecircumflex" horiz-adv-x="601" d="M77 0V700H500V640H139V382H461V323H139V59H514V0H77ZM300 931Q330 886 360 841T420 750H374Q355 774 337 798T300 847Q281 822 263 798T226 750H180Q210 795 240 840T300 931Z" />
<glyph unicode="b;" glyph-name="Edieresis" horiz-adv-x="601" d="M77 0V700H500V640H139V382H461V323H139V59H514V0H77ZM333 804Q333 822 345 834T375 847Q391 847 404 835T417 804Q417 785 404 774T375 762Q358 762 346 773T333 804ZM167 804Q167 822 180
834T209 847Q225 847 238 835T251 804Q251 785 238 774T209 762Q193 762 180 773T167 804Z" />
<glyph unicode="c;" glyph-name="Igrave" horiz-adv-x="236" d="M101 700H164V0H101V700ZM60 883Q83 850 105 817T150 750H104Q77 783 50 816T-4 883H60Z" />
<glyph unicode="d;" glyph-name="Iacute" horiz-adv-x="236" d="M101 700H164V0H101V700ZM115 750Q138 783 160 816T205 883H269Q242 850 215 817T161 750H115Z" />
<glyph unicode="e;" glyph-name="Icircumflex" horiz-adv-x="271" d="M101 700H164V0H101V700ZM133 931Q163 886 193 841T253 750H207Q188 774 170 798T133 847Q114 822 96 798T59 750H13Q43 795 73 840T133 931Z" />
<glyph unicode="f;" glyph-name="Idieresis" horiz-adv-x="236" d="M101 700H164V0H101V700ZM172 804Q172 822 184 834T214 847Q230 847 243 835T256 804Q256 785 243 774T214 762Q197 762 185 773T172 804ZM6 804Q6 822 19 834T48 847Q64 847 77 835T90 804Q90
785 77 774T48 762Q32 762 19 773T6 804Z" />
<glyph unicode="&#xd0;" glyph-name="Eth" horiz-adv-x="646" d="M130 320V59H213Q281 59 339 79T441 138T508 230T533 350Q533 417 509 470T442 562T341 620T213 641H130V381H324V320H130ZM68 381V700H215Q292 700 361 676T482 606T564 495T595 350Q595 291 573
229T501 116T372 33T178 0H68V320H22V381H68Z" />
<glyph unicode="&#xd1;" glyph-name="Ntilde" horiz-adv-x="813" d="M711 700V-32Q577 117 445 263T178 559Q173 566 169 572T159 585Q160 577 160 569T162 553V0H100V732Q234 581 366 432T633 132Q638 125 642 119T652 106Q651 114 651 122T649 138V700H711ZM402
778Q387 795 376 800T350 805Q343 805 334 803T316 796T301 781T293 756L257 759Q258 778 266 793T287 819T315 835T346 841Q368 841 385 832T420 806Q435 789 447 784T473 779Q480 779 489 781T506 788T521 803T530 828Q538 827 547 827T565 825Q564 805 556 790T535
765T507 749T477 744Q454 744 437 753T402 778Z" />
<glyph unicode="&#xd2;" glyph-name="Ograve" horiz-adv-x="839" d="M317 349Q317 423 345 488T421 602T535 679T674 708Q748 708 813 680T927 603T1004 489T1033 349Q1033 275 1005 210T928 97T814 20T674 -8Q600 -8 535 20T422 96T345 210T317 349ZM379 349Q379
287 402 233T465 139T559 75T674 51Q735 51 789 74T883 138T947 233T971 349Q971 410 948 464T884 560T790 624T675 648Q614 648 560 625T466 560T403 465T379 349ZM344 883Q367 850 389 817T434 750H388Q361 783 334 816T280 883H344Z" />
<glyph unicode="&#xd3;" glyph-name="Oacute" horiz-adv-x="840" d="M317 349Q317 423 345 488T421 602T535 679T674 708Q748 708 813 680T927 603T1004 489T1033 349Q1033 275 1005 210T928 97T814 20T674 -8Q600 -8 535 20T422 96T345 210T317 349ZM379 349Q379
287 402 233T465 139T559 75T674 51Q735 51 789 74T883 138T947 233T971 349Q971 410 948 464T884 560T790 624T675 648Q614 648 560 625T466 560T403 465T379 349ZM400 750Q423 783 445 816T490 883H554Q527 850 500 817T446 750H400Z" />
<glyph unicode="&#xd4;" glyph-name="Ocircumflex" horiz-adv-x="839" d="M317 349Q317 423 345 488T421 602T535 679T674 708Q748 708 813 680T927 603T1004 489T1033 349Q1033 275 1005 210T928 97T814 20T674 -8Q600 -8 535 20T422 96T345 210T317 349ZM379
349Q379 287 402 233T465 139T559 75T674 51Q735 51 789 74T883 138T947 233T971 349Q971 410 948 464T884 560T790 624T675 648Q614 648 560 625T466 560T403 465T379 349ZM417 931Q447 886 477 841T537 750H491Q472 774 454 798T417 847Q398 822 380 798T343
750H297Q327 795 357 840T417 931Z" />
<glyph unicode="&#xd5;" glyph-name="Otilde" horiz-adv-x="839" d="M317 349Q317 423 345 488T421 602T535 679T674 708Q748 708 813 680T927 603T1004 489T1033 349Q1033 275 1005 210T928 97T814 20T674 -8Q600 -8 535 20T422 96T345 210T317 349ZM379 349Q379
287 402 233T465 139T559 75T674 51Q735 51 789 74T883 138T947 233T971 349Q971 410 948 464T884 560T790 624T675 648Q614 648 560 625T466 560T403 465T379 349ZM410 813Q395 830 384 835T358 840Q351 840 342 838T324 831T309 816T301 791L265 794Q266 813
274 828T295 854T323 870T354 876Q376 876 393 867T428 841Q443 824 455 819T481 814Q488 814 497 816T514 823T529 838T538 863Q546 862 555 862T573 860Q572 840 564 825T543 800T515 784T485 779Q462 779 445 788T410 813Z" />
<glyph unicode="&#xd6;" glyph-name="Odieresis" horiz-adv-x="839" d="M317 349Q317 423 345 488T421 602T535 679T674 708Q748 708 813 680T927 603T1004 489T1033 349Q1033 275 1005 210T928 97T814 20T674 -8Q600 -8 535 20T422 96T345 210T317 349ZM379 349Q379
287 402 233T465 139T559 75T674 51Q735 51 789 74T883 138T947 233T971 349Q971 410 948 464T884 560T790 624T675 648Q614 648 560 625T466 560T403 465T379 349ZM460 804Q460 822 472 834T502 847Q518 847 531 835T544 804Q544 785 531 774T502 762Q485 762
473 773T460 804ZM294 804Q294 822 307 834T336 847Q352 847 365 835T378 804Q378 785 365 774T336 762Q320 762 307 773T294 804Z" />
<glyph unicode="&#xd7;" glyph-name="multiply" horiz-adv-x="500" d="M370 0Q344 26 317 52T264 105Q238 79 212 53T160 1Q149 12 138 22T116 44L221 149L116 255L160 299L265 193Q292 220 318 246T371 299Q382 288 392 277T414 255L309 150L415 44L370 0Z" />
<glyph unicode="&#xd8;" glyph-name="Oslash" horiz-adv-x="840" d="M124 349Q124 289 145 237T205 145Q302 258 396 369T587 594Q551 620 509 634T419 648Q358 648 305 625T211 560T148 465T124 349ZM418 51Q479 51 533 74T628 138T692 233T716 349Q716 409 693
462T630 556Q534 443 440 332T248 107Q285 81 327 66T418 51ZM62 349Q62 423 90 488T166 602T280 679T419 708Q478 708 530 691T627 641Q643 660 659 678T691 716Q702 706 712 697T734 678Q718 659 703 641T671 604Q721 555 749 490T778 349Q778 275 750 210T673
97T559 20T419 -8Q359 -8 306 10T209 60Q193 42 178 23T146 -14Q135 -5 124 4T102 24Q119 42 134 60T165 98Q117 146 90 210T62 349Z" />
<glyph unicode="&#xd9;" glyph-name="Ugrave" horiz-adv-x="652" d="M329 -8Q276 -8 232 7T155 51T104 125T85 226V700H147V229Q147 186 160 153T198 98T255 63T329 51Q368 51 401 63T459 97T497 153T511 229V700H573V226Q573 169 555 125T503 52T426 7T329 -8ZM264
883Q287 850 309 817T354 750H308Q281 783 254 816T200 883H264Z" />
<glyph unicode="&#xda;" glyph-name="Uacute" horiz-adv-x="652" d="M329 -8Q276 -8 232 7T155 51T104 125T85 226V700H147V229Q147 186 160 153T198 98T255 63T329 51Q368 51 401 63T459 97T497 153T511 229V700H573V226Q573 169 555 125T503 52T426 7T329 -8ZM300
750Q323 783 345 816T390 883H454Q427 850 400 817T346 750H300Z" />
<glyph unicode="&#xdb;" glyph-name="Ucircumflex" horiz-adv-x="652" d="M329 -8Q276 -8 232 7T155 51T104 125T85 226V700H147V229Q147 186 160 153T198 98T255 63T329 51Q368 51 401 63T459 97T497 153T511 229V700H573V226Q573 169 555 125T503 52T426 7T329
-8ZM326 947Q356 902 386 857T446 766H400Q381 790 363 814T326 863Q307 838 289 814T252 766H206Q236 811 266 856T326 947Z" />
<glyph unicode="&#xdc;" glyph-name="Udieresis" horiz-adv-x="652" d="M329 -8Q276 -8 232 7T155 51T104 125T85 226V700H147V229Q147 186 160 153T198 98T255 63T329 51Q368 51 401 63T459 97T497 153T511 229V700H573V226Q573 169 555 125T503 52T426 7T329
-8ZM371 804Q371 822 383 834T413 847Q429 847 442 835T455 804Q455 785 442 774T413 762Q396 762 384 773T371 804ZM205 804Q205 822 218 834T247 847Q263 847 276 835T289 804Q289 785 276 774T247 762Q231 762 218 773T205 804Z" />
<glyph unicode="&#xdd;" glyph-name="Yacute" horiz-adv-x="638" d="M356 267V0H280V268Q215 376 152 483T23 700H99Q151 612 203 527T306 353Q309 346 311 339T317 324H318Q321 331 324 338T330 353Q382 441 433 526T536 700H612Q548 591 484 484T356 267ZM286
750Q309 783 331 816T376 883H440Q413 850 386 817T332 750H286Z" />
<glyph unicode="&#xde;" glyph-name="Thorn" horiz-adv-x="501" d="M162 216H258Q306 216 337 228T387 260T413 303T421 349Q421 374 409 397T375 437T323 465T259 476H162V216ZM162 0H100V700H162V535H257Q290 535 329 525T402 492T460 434T483 349Q483 261 429
209T272 156H162V0Z" />
<glyph unicode="&#xdf;" glyph-name="germandbls" horiz-adv-x="573" d="M190 13Q196 27 202 40T216 68Q246 52 281 52Q312 52 340 64T389 97T422 145T435 204Q435 235 423 262T390 309T341 342T282 354H281Q281 361 281 368T280 384V415Q319 415 346 438T374
501Q374 520 367 537T348 567T319 588T283 596Q253 595 228 583T183 549T153 494T142 422V0H80V345H16V406H80V424Q80 479 96 522T141 595T205 641T282 657Q314 657 342 645T391 611T424 562T436 502Q436 467 420 438T378 390Q430 365 463 316T497 204Q497 160
480 122T434 54T365 8T282 -9Q234 -9 190 13Z" />
<glyph unicode="&#xe0;" glyph-name="agrave" horiz-adv-x="551" d="M112 188Q112 159 122 135T151 92T194 64T248 53Q277 53 302 63T345 92T373 134T384 188Q384 216 374 241T345 284T302 312T248 323Q219 323 194 313T151 284T123 241T112 188ZM49 187Q49 227
64 262T106 325T169 368T248 384Q276 384 300 376T344 356T375 331T391 308Q391 324 392 341T395 375H446V0H391V39V64Q388 54 377 42T347 18T303 0T248 -8Q206 -8 170 7T107 49T65 111T49 187ZM183 612Q206 579 228 546T273 479H227Q200 512 173 545T119 612H183Z"
/>
<glyph unicode="&#xe1;" glyph-name="aacute" horiz-adv-x="551" d="M112 188Q112 159 122 135T151 92T194 64T248 53Q277 53 302 63T345 92T373 134T384 188Q384 216 374 241T345 284T302 312T248 323Q219 323 194 313T151 284T123 241T112 188ZM49 187Q49 227
64 262T106 325T169 368T248 384Q276 384 300 376T344 356T375 331T391 308Q391 324 392 341T395 375H446V0H391V39V64Q388 54 377 42T347 18T303 0T248 -8Q206 -8 170 7T107 49T65 111T49 187ZM232 479Q255 512 277 545T322 612H386Q359 579 332 546T278 479H232Z"
/>
<glyph unicode="&#xe2;" glyph-name="acircumflex" horiz-adv-x="551" d="M112 188Q112 159 122 135T151 92T194 64T248 53Q277 53 302 63T345 92T373 134T384 188Q384 216 374 241T345 284T302 312T248 323Q219 323 194 313T151 284T123 241T112 188ZM49 187Q49
227 64 262T106 325T169 368T248 384Q276 384 300 376T344 356T375 331T391 308Q391 324 392 341T395 375H446V0H391V39V64Q388 54 377 42T347 18T303 0T248 -8Q206 -8 170 7T107 49T65 111T49 187ZM261 660Q291 615 321 570T381 479H335Q316 503 298 527T261 576Q242
551 224 527T187 479H141Q171 524 201 569T261 660Z" />
<glyph unicode="&#xe3;" glyph-name="atilde" horiz-adv-x="551" d="M112 188Q112 159 122 135T151 92T194 64T248 53Q277 53 302 63T345 92T373 134T384 188Q384 216 374 241T345 284T302 312T248 323Q219 323 194 313T151 284T123 241T112 188ZM49 187Q49 227
64 262T106 325T169 368T248 384Q276 384 300 376T344 356T375 331T391 308Q391 324 392 341T395 375H446V0H391V39V64Q388 54 377 42T347 18T303 0T248 -8Q206 -8 170 7T107 49T65 111T49 187ZM520 486Q505 503 494 508T468 513Q461 513 452 511T434 504T419 489T411
464L375 467Q376 486 384 501T405 527T433 543T464 549Q486 549 503 540T538 514Q553 497 565 492T591 487Q598 487 607 489T624 496T639 511T648 536Q656 535 665 535T683 533Q682 513 674 498T653 473T625 457T595 452Q572 452 555 461T520 486Z" />
<glyph unicode="&#xe4;" glyph-name="adieresis" horiz-adv-x="551" d="M112 188Q112 159 122 135T151 92T194 64T248 53Q277 53 302 63T345 92T373 134T384 188Q384 216 374 241T345 284T302 312T248 323Q219 323 194 313T151 284T123 241T112 188ZM49 187Q49
227 64 262T106 325T169 368T248 384Q276 384 300 376T344 356T375 331T391 308Q391 324 392 341T395 375H446V0H391V39V64Q388 54 377 42T347 18T303 0T248 -8Q206 -8 170 7T107 49T65 111T49 187ZM303 514Q303 532 315 544T345 557Q361 557 374 545T387 514Q387
495 374 484T345 472Q328 472 316 483T303 514ZM137 514Q137 532 150 544T179 557Q195 557 208 545T221 514Q221 495 208 484T179 472Q163 472 150 483T137 514Z" />
<glyph unicode="&#xe5;" glyph-name="aring" horiz-adv-x="551" d="M213 539Q213 524 224 513T250 502Q266 502 277 513T288 539Q288 555 277 566T250 577Q235 577 224 566T213 539ZM170 540Q170 573 193 596T250 620Q283 620 306 597T330 540Q330 507 307 484T250
460Q217 460 194 483T170 540ZM112 188Q112 159 122 135T151 92T194 64T248 53Q277 53 302 63T345 92T373 134T384 188Q384 216 374 241T345 284T302 312T248 323Q219 323 194 313T151 284T123 241T112 188ZM49 187Q49 227 64 262T106 325T169 368T248 384Q276
384 300 376T344 356T375 331T391 308Q391 324 392 341T395 375H446V0H391V39V64Q388 54 377 42T347 18T303 0T248 -8Q206 -8 170 7T107 49T65 111T49 187Z" />
<glyph unicode="&#xe6;" glyph-name="ae" horiz-adv-x="629" d="M360 244V213Q395 227 429 239T498 266Q483 292 458 307T404 323Q374 323 347 312Q355 300 357 283T360 244ZM297 149H230Q215 149 194 149T154 144T122 131T108 105Q108 89 117 79T139 63T170 55T204
53Q219 53 235 54T265 62T288 79T297 109V149ZM100 293Q91 304 83 313T65 334Q75 344 91 353T127 369T166 380T205 384Q282 384 315 364Q357 384 404 384Q466 384 512 341T578 231Q524 210 469 190T360 148V138V131Q360 110 357 94T344 65Q371 53 404 53Q430 53
453 63T494 91Q504 79 513 68T533 45Q507 21 475 7T404 -7Q354 -7 310 15Q272 -8 204 -8Q168 -8 139 -3T89 16T57 52T45 108Q45 138 57 158T90 190T137 208T191 213H297V246Q297 265 294 279T281 304T253 318T204 323Q191 323 176 321T147 314T120 304T100 293Z"
/>
<glyph unicode="&#xe7;" glyph-name="ccedilla" horiz-adv-x="391" d="M321 82Q339 59 359 35Q307 -6 236 -8Q236 -22 240 -30T251 -44T265 -53T278 -61Q300 -77 308 -96T317 -138Q317 -176 298 -203T245 -238Q236 -240 228 -240T208 -240Q180 -238 157 -222T122
-172L158 -154Q164 -171 178 -182T214 -194Q240 -194 255 -177T270 -134Q270 -112 259 -99T234 -77T209 -57T197 -29V-3Q162 3 133 20T82 62T48 120T36 188Q36 228 51 264T94 326T157 368T234 384Q271 384 302 373T360 341Q350 329 340 318T321 294Q303 308 281
315T234 323Q205 323 180 313T137 284T109 241T98 188Q98 159 108 135T137 92T180 64T234 53Q260 53 281 60T321 82Z" />
<glyph unicode="&#xe8;" glyph-name="egrave" horiz-adv-x="451" d="M234 323Q184 323 148 293T103 218Q101 208 101 198T100 178Q157 200 214 221T328 265Q313 291 289 307T234 323ZM408 230L117 119Q134 89 164 71T234 53Q261 53 284 63T325 90Q334 79 343 68T363
45Q337 20 305 6T234 -8Q193 -8 157 7T94 49T52 111T36 188Q36 228 51 264T94 326T157 368T234 384Q265 384 292 373T342 341T382 292T408 230ZM142 612Q165 579 187 546T232 479H186Q159 512 132 545T78 612H142Z" />
<glyph unicode="&#xe9;" glyph-name="eacute" horiz-adv-x="451" d="M234 323Q184 323 148 293T103 218Q101 208 101 198T100 178Q157 200 214 221T328 265Q313 291 289 307T234 323ZM408 230L117 119Q134 89 164 71T234 53Q261 53 284 63T325 90Q334 79 343 68T363
45Q337 20 305 6T234 -8Q193 -8 157 7T94 49T52 111T36 188Q36 228 51 264T94 326T157 368T234 384Q265 384 292 373T342 341T382 292T408 230ZM223 479Q246 512 268 545T313 612H377Q350 579 323 546T269 479H223Z" />
<glyph unicode="&#xea;" glyph-name="ecircumflex" horiz-adv-x="451" d="M234 323Q184 323 148 293T103 218Q101 208 101 198T100 178Q157 200 214 221T328 265Q313 291 289 307T234 323ZM408 230L117 119Q134 89 164 71T234 53Q261 53 284 63T325 90Q334 79
343 68T363 45Q337 20 305 6T234 -8Q193 -8 157 7T94 49T52 111T36 188Q36 228 51 264T94 326T157 368T234 384Q265 384 292 373T342 341T382 292T408 230ZM232 660Q262 615 292 570T352 479H306Q287 503 269 527T232 576Q213 551 195 527T158 479H112Q142 524
172 569T232 660Z" />
<glyph unicode="&#xeb;" glyph-name="edieresis" horiz-adv-x="451" d="M234 323Q184 323 148 293T103 218Q101 208 101 198T100 178Q157 200 214 221T328 265Q313 291 289 307T234 323ZM408 230L117 119Q134 89 164 71T234 53Q261 53 284 63T325 90Q334 79 343
68T363 45Q337 20 305 6T234 -8Q193 -8 157 7T94 49T52 111T36 188Q36 228 51 264T94 326T157 368T234 384Q265 384 292 373T342 341T382 292T408 230ZM271 514Q271 532 283 544T313 557Q329 557 342 545T355 514Q355 495 342 484T313 472Q296 472 284 483T271
514ZM105 514Q105 532 118 544T147 557Q163 557 176 545T189 514Q189 495 176 484T147 472Q131 472 118 483T105 514Z" />
<glyph unicode="&#xec;" glyph-name="igrave" horiz-adv-x="174" d="M129 0H66V375H129V0ZM23 612Q46 579 68 546T113 479H67Q40 512 13 545T-41 612H23Z" />
<glyph unicode="&#xed;" glyph-name="iacute" horiz-adv-x="196" d="M127 0H64V375H127V0ZM80 479Q103 512 125 545T170 612H234Q207 579 180 546T126 479H80Z" />
<glyph unicode="&#xee;" glyph-name="icircumflex" horiz-adv-x="239" d="M147 0H85V375H147V0ZM116 660Q146 615 176 570T236 479H190Q171 503 153 527T116 576Q97 551 79 527T42 479H-4Q26 524 56 569T116 660Z" />
<glyph unicode="&#xef;" glyph-name="idieresis" horiz-adv-x="271" d="M173 0H111V375H173V0ZM182 514Q182 532 194 544T224 557Q240 557 253 545T266 514Q266 495 253 484T224 472Q207 472 195 483T182 514ZM16 514Q16 532 29 544T58 557Q74 557 87 545T100
514Q100 495 87 484T58 472Q42 472 29 483T16 514Z" />
<glyph unicode="&#xf0;" glyph-name="eth" horiz-adv-x="493" d="M115 188Q115 159 126 135T155 92T199 64T253 55Q282 55 307 66T350 95T377 139T387 192Q386 221 376 245T347 288T303 315T249 325Q219 324 195 314T152 285T125 241T115 188ZM135 536Q151 553
166 569T197 602Q175 627 152 650T105 693Q116 704 127 714T149 734Q173 716 196 695T241 650Q255 664 267 678T294 708Q305 698 315 689T337 670Q322 653 307 638T278 605Q312 562 343 512T397 407T435 299T449 194Q450 153 436 118T395 55T333 12T255 -6Q214
-7 178 8T114 49T70 110T52 186Q51 226 66 262T107 325T170 368T247 385Q273 386 297 377T340 353Q327 398 301 450T233 556Q219 541 206 526T178 496Q167 507 157 516T135 536Z" />
<glyph unicode="&#xf1;" glyph-name="ntilde" horiz-adv-x="523" d="M92 375H148V353Q149 333 150 316T152 278Q172 326 216 354T315 383Q372 383 405 352T440 271V0H378V247Q376 276 357 298T297 322Q269 322 243 312T198 285T167 245T155 193V0H92V375ZM275
734Q260 751 249 756T223 761Q216 761 207 759T189 752T174 737T166 712L130 715Q131 734 139 749T160 775T188 791T219 797Q241 797 258 788T293 762Q308 745 320 740T346 735Q353 735 362 737T379 744T394 759T403 784Q411 783 420 783T438 781Q437 761 429 746T408
721T380 705T350 700Q327 700 310 709T275 734Z" />
<glyph unicode="&#xf2;" glyph-name="ograve" horiz-adv-x="469" d="M36 188Q36 228 51 264T94 326T157 368T234 384Q276 384 312 369T376 327T418 264T434 188Q434 147 419 112T376 50T313 8T234 -8Q193 -8 157 7T94 49T52 111T36 188ZM98 187Q98 159 108 135T137
92T180 64T233 53Q261 53 285 63T328 92T357 134T368 187Q368 215 358 240T329 283T286 312T233 323Q205 323 181 313T138 284T109 240T98 187ZM149 612Q172 579 194 546T239 479H193Q166 512 139 545T85 612H149Z" />
<glyph unicode="&#xf3;" glyph-name="oacute" horiz-adv-x="469" d="M36 188Q36 228 51 264T94 326T157 368T234 384Q276 384 312 369T376 327T418 264T434 188Q434 147 419 112T376 50T313 8T234 -8Q193 -8 157 7T94 49T52 111T36 188ZM98 187Q98 159 108 135T137
92T180 64T233 53Q261 53 285 63T328 92T357 134T368 187Q368 215 358 240T329 283T286 312T233 323Q205 323 181 313T138 284T109 240T98 187ZM231 479Q254 512 276 545T321 612H385Q358 579 331 546T277 479H231Z" />
<glyph unicode="&#xf4;" glyph-name="ocircumflex" horiz-adv-x="469" d="M36 188Q36 228 51 264T94 326T157 368T234 384Q276 384 312 369T376 327T418 264T434 188Q434 147 419 112T376 50T313 8T234 -8Q193 -8 157 7T94 49T52 111T36 188ZM98 187Q98 159 108
135T137 92T180 64T233 53Q261 53 285 63T328 92T357 134T368 187Q368 215 358 240T329 283T286 312T233 323Q205 323 181 313T138 284T109 240T98 187ZM232 660Q262 615 292 570T352 479H306Q287 503 269 527T232 576Q213 551 195 527T158 479H112Q142 524 172
569T232 660Z" />
<glyph unicode="&#xf5;" glyph-name="otilde" horiz-adv-x="469" d="M36 188Q36 228 51 264T94 326T157 368T234 384Q276 384 312 369T376 327T418 264T434 188Q434 147 419 112T376 50T313 8T234 -8Q193 -8 157 7T94 49T52 111T36 188ZM98 187Q98 159 108 135T137
92T180 64T233 53Q261 53 285 63T328 92T357 134T368 187Q368 215 358 240T329 283T286 312T233 323Q205 323 181 313T138 284T109 240T98 187ZM485 486Q470 503 459 508T433 513Q426 513 417 511T399 504T384 489T376 464L340 467Q341 486 349 501T370 527T398
543T429 549Q451 549 468 540T503 514Q518 497 530 492T556 487Q563 487 572 489T589 496T604 511T613 536Q621 535 630 535T648 533Q647 513 639 498T618 473T590 457T560 452Q537 452 520 461T485 486Z" />
<glyph unicode="&#xf6;" glyph-name="odieresis" horiz-adv-x="469" d="M36 188Q36 228 51 264T94 326T157 368T234 384Q276 384 312 369T376 327T418 264T434 188Q434 147 419 112T376 50T313 8T234 -8Q193 -8 157 7T94 49T52 111T36 188ZM98 187Q98 159 108
135T137 92T180 64T233 53Q261 53 285 63T328 92T357 134T368 187Q368 215 358 240T329 283T286 312T233 323Q205 323 181 313T138 284T109 240T98 187ZM276 514Q276 532 288 544T318 557Q334 557 347 545T360 514Q360 495 347 484T318 472Q301 472 289 483T276
514ZM110 514Q110 532 123 544T152 557Q168 557 181 545T194 514Q194 495 181 484T152 472Q136 472 123 483T110 514Z" />
<glyph unicode="&#xf7;" glyph-name="divide" horiz-adv-x="501" d="M428 207H68V268H428V207ZM209 363Q209 382 221 394T251 406Q267 406 280 394T293 363Q293 344 280 333T251 321Q234 321 222 332T209 363ZM209 113Q209 132 221 144T251 156Q267 156 280 144T293
113Q293 94 280 83T251 71Q234 71 222 82T209 113Z" />
<glyph unicode="&#xf8;" glyph-name="oslash" horiz-adv-x="469" d="M98 188Q98 164 105 143T126 105Q170 156 212 206T298 307Q268 323 234 323Q205 323 180 313T137 284T109 241T98 188ZM234 53Q263 53 288 63T331 92T359 134T370 188Q370 215 361 238T334 279Q290
228 247 177T160 74Q176 64 194 59T234 53ZM36 188Q36 228 51 264T94 326T157 368T234 384Q292 384 339 354Q347 365 356 375T374 396Q382 388 391 381T408 365L375 326Q402 300 417 265T433 188Q433 147 418 112T376 50T313 8T234 -8Q170 -8 120 28Q109 16 100
4T79 -21Q71 -13 62 -7T44 8Q55 21 65 33T86 57Q62 83 49 116T36 188Z" />
<glyph unicode="&#xf9;" glyph-name="ugrave" horiz-adv-x="529" d="M440 -6H378V52L381 97Q361 49 317 21T218 -8Q161 -8 128 23T92 104V375H155V128Q157 98 176 77T236 53Q264 53 290 62T335 89T366 130T378 182V375H440V-6ZM205 612Q228 579 250 546T295 479H249Q222
512 195 545T141 612H205Z" />
<glyph unicode="&#xfa;" glyph-name="uacute" horiz-adv-x="529" d="M440 -6H378V52L381 97Q361 49 317 21T218 -8Q161 -8 128 23T92 104V375H155V128Q157 98 176 77T236 53Q264 53 290 62T335 89T366 130T378 182V375H440V-6ZM231 479Q254 512 276 545T321 612H385Q358
579 331 546T277 479H231Z" />
<glyph unicode="&#xfb;" glyph-name="ucircumflex" horiz-adv-x="529" d="M440 -6H378V52L381 97Q361 49 317 21T218 -8Q161 -8 128 23T92 104V375H155V128Q157 98 176 77T236 53Q264 53 290 62T335 89T366 130T378 182V375H440V-6ZM266 660Q296 615 326 570T386
479H340Q321 503 303 527T266 576Q247 551 229 527T192 479H146Q176 524 206 569T266 660Z" />
<glyph unicode="&#xfc;" glyph-name="udieresis" horiz-adv-x="529" d="M440 -6H378V52L381 97Q361 49 317 21T218 -8Q161 -8 128 23T92 104V375H155V128Q157 98 176 77T236 53Q264 53 290 62T335 89T366 130T378 182V375H440V-6ZM303 514Q303 532 315 544T345
557Q361 557 374 545T387 514Q387 495 374 484T345 472Q328 472 316 483T303 514ZM137 514Q137 532 150 544T179 557Q195 557 208 545T221 514Q221 495 208 484T179 472Q163 472 150 483T137 514Z" />
<glyph unicode="&#xfd;" glyph-name="yacute" horiz-adv-x="488" d="M160 -250H96Q128 -187 158 -126T221 -1Q173 93 127 187T32 375H95Q135 297 178 217T253 56Q285 137 328 217T410 375H473Q395 218 317 63T160 -250ZM241 479Q264 512 286 545T331 612H395Q368
579 341 546T287 479H241Z" />
<glyph unicode="&#xfe;" glyph-name="thorn" horiz-adv-x="557" d="M401 188Q401 216 391 240T363 283T320 311T265 322Q236 322 211 312T168 283T140 241T129 188Q129 159 139 135T168 92T211 63T265 52Q295 52 320 62T363 91T391 134T401 188ZM464 187Q464 147
449 112T407 49T344 7T265 -9Q235 -9 210 -1T167 18T137 41T122 63Q124 55 126 48T130 32V-250H67V750H129V348Q127 337 126 328T122 307Q125 317 137 330T169 354T212 374T265 382Q307 382 343 367T406 325T448 263T464 187Z" />
<glyph unicode="&#xff;" glyph-name="ydieresis" horiz-adv-x="488" d="M160 -250H96Q128 -187 158 -126T221 -1Q173 93 127 187T32 375H95Q135 297 178 217T253 56Q285 137 328 217T410 375H473Q395 218 317 63T160 -250ZM296 514Q296 532 308 544T338 557Q354
557 367 545T380 514Q380 495 367 484T338 472Q321 472 309 483T296 514ZM130 514Q130 532 143 544T172 557Q188 557 201 545T214 514Q214 495 201 484T172 472Q156 472 143 483T130 514Z" />
</font>
</defs>
</svg>
